# xmcd
#
# Track frame offsets:
# 150
# 16131
# 33900
# 50965
# 64844
# 75655
# 90159
# 102637
# 115702
# 130085
# 142985
# 155424
# 171650
# 191255
# 207166
# 230333
# 244719
# 265781
# 284591
# 304486
# 323544
# 336566
#
# Disc length: 4720 seconds
#
# Revision: 0
# Processed by: cddbd v1.5PL3 Copyright (c) Steve Scherf et al.
# Submitted via: Audion 3.0.2 (http://www.panic.com/audion/)
#
DISCID=37126e16
DTITLE=kaim - kaiminji
DYEAR=1900
DGENRE=
TTITLE0=1
TTITLE1=1
TTITLE2=1
TTITLE3=1
TTITLE4=1
TTITLE5=1
TTITLE6=1
TTITLE7=1
TTITLE8=1
TTITLE9=1
TTITLE10=1
TTITLE11=1
TTITLE12=1
TTITLE13=1
TTITLE14=1
TTITLE15=1
TTITLE16=1
TTITLE17=1
TTITLE18=11
TTITLE19=1
TTITLE20=1
TTITLE21=1
EXTD=
EXTT0=
EXTT1=
EXTT2=
EXTT3=
EXTT4=
EXTT5=
EXTT6=
EXTT7=
EXTT8=
EXTT9=
EXTT10=
EXTT11=
EXTT12=
EXTT13=
EXTT14=
EXTT15=
EXTT16=
EXTT17=
EXTT18=
EXTT19=
EXTT20=
EXTT21=
PLAYORDER=
